<?xml version='1.0' encoding='utf-8'?>
<!DOCTYPE svg PUBLIC '-//W3C//DTD SVG 1.1//EN' 'http://www.w3.org/Graphics/SVG/1.1/DTD/svg11.dtd'>
<!-- Uploaded to: SVG Repo, www.svgrepo.com, Generator: SVG Repo Mixer Tools -->
<svg fill="#000000" height="800px" width="800px" version="1.1" xmlns="http://www.w3.org/2000/svg" viewBox="0 0 512 512" xmlns:xlink="http://www.w3.org/1999/xlink" enable-background="new 0 0 512 512">
  <g>
    <g>
      <path d="m480.6,460.2h-93c85.3-81.2 82.2-188.2 10.2-265.4l55.5-56.1c7.9-8 7.9-20.8 0-28.7l-61.4-62.1c-7.7-7.8-21.4-7.8-29,0l-168.1,169.8c-7.9,8-7.9,20.8 0,28.7l16.5,16.7-46.1,46.6c-7.9,8-7.9,20.9 0.2,28.9 8,7.9 20.9,7.9 28.9-0.2l45.8-46.3 16.2,16.4c11.8,11 24.7,4.7 29,0l83.8-84.7c57.3,62.4 55.6,141.2-5.1,202.6-14.3,14.4-30.8,25.8-49,33.8h-283.6c-11.3,0-20.4,9.1-20.4,20.4 0,11.3 9.1,20.4 20.4,20.4h449.2c11.3,0 20.4-9.1 20.4-20.4 5.68434e-14-11.3-9.1-20.4-20.4-20.4zm-209.8-195.1l-32.7-33.1 139.3-140.8 32.7,33.1-139.3,140.8z"/>
      <path d="m455,70.9c8,8 20.9,8 28.9,0 8-8 8-20.9 0-28.9l-25.1-25c-8-8-20.9-8-28.9,0-8,8-8,20.9 0,28.9l25.1,25z"/>
      <path d="m111.7,423.4h72.1c11.3,0 20.4-9.1 20.4-20.4 0-11.3-9.1-20.4-20.4-20.4h-72.1c-11.3,0-20.4,9.1-20.4,20.4-1.42109e-14,11.2 9.2,20.4 20.4,20.4z"/>
    </g>
  </g>
</svg>